<?xml version="1.0" standalone="no"?><!DOCTYPE svg PUBLIC "-//W3C//DTD SVG 1.1//EN" "http://www.w3.org/Graphics/SVG/1.1/DTD/svg11.dtd"><svg t="1716114016181" class="icon" viewBox="0 0 1024 1024" version="1.1" xmlns="http://www.w3.org/2000/svg" p-id="6752" xmlns:xlink="http://www.w3.org/1999/xlink" width="48" height="48"><path d="M879.6 660.2h37.3c6.1 0 11.1 5 11.1 11.1v215.1c0 6.1-5 11.1-11.1 11.1h-37.3c-6.1 0-11.1-5-11.1-11.1v-215c0-6.3 5-11.2 11.1-11.2z m-118.8-59.4h37.3c6.1 0 11.1 5 11.1 11.1v274.5c0 6.1-5 11.1-11.1 11.1h-37.3c-6.1 0-11.1-5-11.1-11.1V611.9c-0.1-6.1 5-11.1 11.1-11.1zM641.9 719.6h37.3c6.1 0 11.1 5 11.1 11.1v155.6c0 6.1-5 11.1-11.1 11.1h-37.3c-6.1 0-11.1-5-11.1-11.1V730.8c0-6.1 5-11.2 11.1-11.2z m0 0" p-id="6753" fill="#2c3e50"></path><path d="M500.3 838c-5.3 0.3-10.7 0.5-16.1 0.5-184.9 1.1-334.5-152.6-328.7-337.4 5.5-171 142.3-308.9 313-316 185.2-7.6 339.2 138.8 340.5 324.2 0.1 6.8-0.1 13.6-0.5 20.2-0.4 6.4 4.7 11.8 11.1 11.8H857c5.9 0 10.9-4.6 11.1-10.6 0.3-5.8 0.5-11.5 0.5-17.4 0.9-213.7-170.6-386.9-384.3-388C269.8 124.4 95.8 297.9 96 512.1c0.3 214.3 173.6 386.7 388 385.8 5.8 0 11.7-0.2 17.5-0.5 5.9-0.3 10.6-5.2 10.6-11.1v-37.2c-0.1-6.3-5.4-11.4-11.8-11.1z m0 0" p-id="6754" fill="#2c3e50"></path><path d="M441.5 544.1h-156c-6.1 0-11.1 5-11.1 11.1v34.4c0 6.1 5 11.1 11.1 11.1h215.3c6.1 0 11.1-5 11.1-11.1V314.8c0-6.1-5-11.1-11.1-11.1h-37c-6.1 0-11.1 5-11.1 11.1v218.1c-0.1 6.2-5.1 11.2-11.2 11.2z m0 0" p-id="6755" fill="#2c3e50"></path></svg>